<svg xmlns="http://www.w3.org/2000/svg" viewBox="0 0 112 112" width="112"><g transform="translate(56 56)"><rect x="-54" y="-54" width="108" height="108" rx="5" fill="#fff" stroke="#9aa7b8" stroke-width="1.6"/><g transform="translate(-24 -18) scale(0.9)"><g transform="rotate(0)"><polygon points="0.0,-12.4 3.1,-4.2 11.8,-3.8 4.9,1.6 7.3,10.0 0.0,5.2 -7.3,10.0 -4.9,1.6 -11.8,-3.8 -3.1,-4.2" fill="#fff" stroke="#141b26" stroke-width="2.2" stroke-linejoin="round"/></g></g><g transform="translate(24 -18) scale(0.9)"><g transform="scale(1.250)"><polygon points="0,-16 5,-5 17,-4 7,3 10,16 0,8 -10,16 -7,3 -17,-4 -5,-5" fill="#141b26"/></g></g><g transform="translate(0 20) scale(0.9)"><g transform="rotate(0)"><polygon points="0.0,-14.0 10.9,-8.7 13.6,3.1 6.1,12.6 -6.1,12.6 -13.6,3.1 -10.9,-8.7" fill="#fff" stroke="#141b26" stroke-width="2.2" stroke-linejoin="round"/></g></g></g></svg>