<svg xmlns="http://www.w3.org/2000/svg" viewBox="0 0 112 112" width="112"><g transform="translate(56 56)"><rect x="-54" y="-54" width="108" height="108" rx="5" fill="#fff" stroke="#9aa7b8" stroke-width="1.6"/><g transform="translate(-24 -18) scale(0.9)"><g transform="rotate(0)"><polygon points="0.0,-12.4 3.1,-4.2 11.8,-3.8 4.9,1.6 7.3,10.0 0.0,5.2 -7.3,10.0 -4.9,1.6 -11.8,-3.8 -3.1,-4.2" fill="#fff" stroke="#141b26" stroke-width="2.2" stroke-linejoin="round"/></g></g><g transform="translate(24 -18) scale(0.9)"><circle r="5" fill="none" stroke="#141b26" stroke-width="2"/><circle r="10" fill="none" stroke="#141b26" stroke-width="2"/><circle r="15" fill="none" stroke="#141b26" stroke-width="2"/><circle r="20" fill="none" stroke="#141b26" stroke-width="2"/><circle r="25" fill="none" stroke="#141b26" stroke-width="2"/></g><g transform="translate(0 20) scale(0.9)"><rect x="-21.0" y="-6" width="6" height="12" fill="#141b26"/><rect x="-12.0" y="-6" width="6" height="12" fill="#141b26"/><rect x="-3.0" y="-6" width="6" height="12" fill="#141b26"/><rect x="6.0" y="-6" width="6" height="12" fill="#141b26"/><rect x="15.0" y="-6" width="6" height="12" fill="#141b26"/></g></g></svg>