<svg xmlns="http://www.w3.org/2000/svg" viewBox="0 0 112 112" width="112"><g transform="translate(56 56)"><rect x="-54" y="-54" width="108" height="108" rx="5" fill="#fff" stroke="#9aa7b8" stroke-width="1.6"/><g transform="translate(-24 -18) scale(0.9)"><rect x="-25.5" y="-6" width="6" height="12" fill="#141b26"/><rect x="-16.5" y="-6" width="6" height="12" fill="#141b26"/><rect x="-7.5" y="-6" width="6" height="12" fill="#141b26"/><rect x="1.5" y="-6" width="6" height="12" fill="#141b26"/><rect x="10.5" y="-6" width="6" height="12" fill="#141b26"/><rect x="19.5" y="-6" width="6" height="12" fill="#141b26"/></g><g transform="translate(24 -18) scale(0.9)"><g transform="rotate(0)"><polygon points="0.0,-9.2 2.3,-3.1 8.7,-2.8 3.7,1.2 5.4,7.4 0.0,3.9 -5.4,7.4 -3.7,1.2 -8.7,-2.8 -2.3,-3.1" fill="#fff" stroke="#141b26" stroke-width="2.2" stroke-linejoin="round"/></g></g><g transform="translate(0 20) scale(0.9)"><g transform="scale(1.250)"><polygon points="0,-16 5,-5 17,-4 7,3 10,16 0,8 -10,16 -7,3 -17,-4 -5,-5" fill="#141b26"/></g></g></g></svg>