<svg xmlns="http://www.w3.org/2000/svg" viewBox="0 0 554 128" width="554"><g transform="translate(8 8)"><g transform="translate(56 56)"><rect x="-54" y="-54" width="108" height="108" rx="5" fill="#fff" stroke="#9aa7b8" stroke-width="1.6"/><g transform="translate(-24 -18) scale(0.9)"><g transform="rotate(0)"><polygon points="0.0,-14.0 10.9,-8.7 13.6,3.1 6.1,12.6 -6.1,12.6 -13.6,3.1 -10.9,-8.7" fill="#fff" stroke="#141b26" stroke-width="2.2" stroke-linejoin="round"/></g></g><g transform="translate(24 -18) scale(0.9)"><g transform="scale(1.250)"><polygon points="0,-16 5,-5 17,-4 7,3 10,16 0,8 -10,16 -7,3 -17,-4 -5,-5" fill="#141b26"/></g></g><g transform="translate(0 20) scale(0.9)"><circle r="5" fill="none" stroke="#141b26" stroke-width="2"/></g></g></g><text x="135" y="72" font-size="26" font-weight="bold" text-anchor="middle" fill="#141b26">:</text><g transform="translate(150 8)"><g transform="translate(56 56)"><rect x="-54" y="-54" width="108" height="108" rx="5" fill="#fff" stroke="#9aa7b8" stroke-width="1.6"/><g transform="translate(-24 -18) scale(0.9)"><g transform="rotate(0)"><polygon points="0.0,-14.0 12.1,-7.0 12.1,7.0 0.0,14.0 -12.1,7.0 -12.1,-7.0" fill="#fff" stroke="#141b26" stroke-width="2.2" stroke-linejoin="round"/></g></g><g transform="translate(24 -18) scale(0.9)"><g transform="scale(1.038)"><polygon points="0,-16 5,-5 17,-4 7,3 10,16 0,8 -10,16 -7,3 -17,-4 -5,-5" fill="#141b26"/></g></g><g transform="translate(0 20) scale(0.9)"><circle r="5" fill="none" stroke="#141b26" stroke-width="2"/><circle r="10" fill="none" stroke="#141b26" stroke-width="2"/></g></g></g><text x="277" y="72" font-size="26" font-weight="bold" text-anchor="middle" fill="#141b26">=</text><g transform="translate(292 8)"><g transform="translate(56 56)"><rect x="-54" y="-54" width="108" height="108" rx="5" fill="#fff" stroke="#9aa7b8" stroke-width="1.6"/><g transform="translate(-24 -18) scale(0.9)"><g transform="rotate(0)"><polygon points="0.0,-14.0 14.0,0.0 0.0,14.0 -14.0,0.0" fill="#fff" stroke="#141b26" stroke-width="2.2" stroke-linejoin="round"/></g></g><g transform="translate(24 -18) scale(0.9)"><g transform="scale(0.613)"><polygon points="0,-16 5,-5 17,-4 7,3 10,16 0,8 -10,16 -7,3 -17,-4 -5,-5" fill="#141b26"/></g></g><g transform="translate(0 20) scale(0.9)"><circle r="5" fill="none" stroke="#141b26" stroke-width="2"/><circle r="10" fill="none" stroke="#141b26" stroke-width="2"/><circle r="15" fill="none" stroke="#141b26" stroke-width="2"/><circle r="20" fill="none" stroke="#141b26" stroke-width="2"/></g></g></g><text x="419" y="72" font-size="26" font-weight="bold" text-anchor="middle" fill="#141b26">:</text><g transform="translate(434 8)"><g transform="translate(56 56)"><rect x="-54" y="-54" width="108" height="108" rx="5" fill="#f5f3ee" stroke="#9aa7b8" stroke-width="1.6"/><text x="0" y="15.680000000000001" font-size="44.800000000000004" font-weight="bold" text-anchor="middle" fill="#7d8ba0">?</text></g></g></svg>