<svg xmlns="http://www.w3.org/2000/svg" viewBox="0 0 554 128" width="554"><g transform="translate(8 8)"><g transform="translate(56 56)"><rect x="-54" y="-54" width="108" height="108" rx="5" fill="#fff" stroke="#9aa7b8" stroke-width="1.6"/><g transform="translate(-24 -18) scale(0.9)"><g transform="rotate(0) scale(1.25)"><line x1="-17" y1="0" x2="12" y2="0" stroke="#141b26" stroke-width="3"/><polygon points="17,0 8,-6 8,6" fill="#141b26"/><circle cx="-4" cy="0" r="7.5" fill="#141b26"/></g></g><g transform="translate(24 -18) scale(0.9)"><g transform="rotate(0)"><polygon points="0.0,-18.8 4.6,-6.4 17.8,-5.8 7.5,2.4 11.0,15.2 0.0,7.9 -11.0,15.2 -7.5,2.4 -17.8,-5.8 -4.6,-6.4" fill="#fff" stroke="#141b26" stroke-width="2.2" stroke-linejoin="round"/></g></g><g transform="translate(0 20) scale(0.9)"><circle r="5" fill="none" stroke="#141b26" stroke-width="2"/></g></g></g><text x="135" y="72" font-size="26" font-weight="bold" text-anchor="middle" fill="#141b26">:</text><g transform="translate(150 8)"><g transform="translate(56 56)"><rect x="-54" y="-54" width="108" height="108" rx="5" fill="#fff" stroke="#9aa7b8" stroke-width="1.6"/><g transform="translate(-24 -18) scale(0.9)"><g transform="rotate(0) scale(1.038)"><line x1="-17" y1="0" x2="12" y2="0" stroke="#141b26" stroke-width="3"/><polygon points="17,0 8,-6 8,6" fill="#141b26"/><circle cx="-4" cy="0" r="7.5" fill="#141b26"/></g></g><g transform="translate(24 -18) scale(0.9)"><g transform="rotate(0)"><polygon points="0.0,-15.6 3.8,-5.3 14.8,-4.8 6.2,2.0 9.2,12.6 0.0,6.5 -9.2,12.6 -6.2,2.0 -14.8,-4.8 -3.8,-5.3" fill="#fff" stroke="#141b26" stroke-width="2.2" stroke-linejoin="round"/></g></g><g transform="translate(0 20) scale(0.9)"><circle r="5" fill="none" stroke="#141b26" stroke-width="2"/><circle r="10" fill="none" stroke="#141b26" stroke-width="2"/></g></g></g><text x="277" y="72" font-size="26" font-weight="bold" text-anchor="middle" fill="#141b26">=</text><g transform="translate(292 8)"><g transform="translate(56 56)"><rect x="-54" y="-54" width="108" height="108" rx="5" fill="#fff" stroke="#9aa7b8" stroke-width="1.6"/><g transform="translate(-24 -18) scale(0.9)"><g transform="rotate(0) scale(0.613)"><line x1="-17" y1="0" x2="12" y2="0" stroke="#141b26" stroke-width="3"/><polygon points="17,0 8,-6 8,6" fill="#141b26"/><circle cx="-4" cy="0" r="7.5" fill="#141b26"/></g></g><g transform="translate(24 -18) scale(0.9)"><g transform="rotate(0)"><polygon points="0.0,-9.2 2.3,-3.1 8.7,-2.8 3.7,1.2 5.4,7.4 0.0,3.9 -5.4,7.4 -3.7,1.2 -8.7,-2.8 -2.3,-3.1" fill="#fff" stroke="#141b26" stroke-width="2.2" stroke-linejoin="round"/></g></g><g transform="translate(0 20) scale(0.9)"><circle r="5" fill="none" stroke="#141b26" stroke-width="2"/><circle r="10" fill="none" stroke="#141b26" stroke-width="2"/><circle r="15" fill="none" stroke="#141b26" stroke-width="2"/><circle r="20" fill="none" stroke="#141b26" stroke-width="2"/></g></g></g><text x="419" y="72" font-size="26" font-weight="bold" text-anchor="middle" fill="#141b26">:</text><g transform="translate(434 8)"><g transform="translate(56 56)"><rect x="-54" y="-54" width="108" height="108" rx="5" fill="#f5f3ee" stroke="#9aa7b8" stroke-width="1.6"/><text x="0" y="15.680000000000001" font-size="44.800000000000004" font-weight="bold" text-anchor="middle" fill="#7d8ba0">?</text></g></g></svg>