<svg xmlns="http://www.w3.org/2000/svg" viewBox="0 0 554 128" width="554"><g transform="translate(8 8)"><g transform="translate(56 56)"><rect x="-54" y="-54" width="108" height="108" rx="5" fill="#fff" stroke="#9aa7b8" stroke-width="1.6"/><g transform="translate(-24 -18) scale(0.9)"><circle r="5" fill="none" stroke="#141b26" stroke-width="2"/></g><g transform="translate(24 -18) scale(0.9)"><g transform="rotate(0)"><polyline points="-7,-11 8,0 -7,11" fill="none" stroke="#141b26" stroke-width="3.2" stroke-linejoin="round" stroke-linecap="round"/></g></g><g transform="translate(0 20) scale(0.9)"><rect x="-7.5" y="-6" width="6" height="12" fill="#141b26"/><rect x="1.5" y="-6" width="6" height="12" fill="#141b26"/></g></g></g><text x="135" y="72" font-size="26" font-weight="bold" text-anchor="middle" fill="#141b26">:</text><g transform="translate(150 8)"><g transform="translate(56 56)"><rect x="-54" y="-54" width="108" height="108" rx="5" fill="#fff" stroke="#9aa7b8" stroke-width="1.6"/><g transform="translate(-24 -18) scale(0.9)"><circle r="5" fill="none" stroke="#141b26" stroke-width="2"/><circle r="10" fill="none" stroke="#141b26" stroke-width="2"/></g><g transform="translate(24 -18) scale(0.9)"><g transform="rotate(90)"><polyline points="-7,-11 8,0 -7,11" fill="none" stroke="#141b26" stroke-width="3.2" stroke-linejoin="round" stroke-linecap="round"/></g></g><g transform="translate(0 20) scale(0.9)"><rect x="-12.0" y="-6" width="6" height="12" fill="#141b26"/><rect x="-3.0" y="-6" width="6" height="12" fill="#141b26"/><rect x="6.0" y="-6" width="6" height="12" fill="#141b26"/></g></g></g><text x="277" y="72" font-size="26" font-weight="bold" text-anchor="middle" fill="#141b26">=</text><g transform="translate(292 8)"><g transform="translate(56 56)"><rect x="-54" y="-54" width="108" height="108" rx="5" fill="#fff" stroke="#9aa7b8" stroke-width="1.6"/><g transform="translate(-24 -18) scale(0.9)"><circle r="5" fill="none" stroke="#141b26" stroke-width="2"/><circle r="10" fill="none" stroke="#141b26" stroke-width="2"/><circle r="15" fill="none" stroke="#141b26" stroke-width="2"/><circle r="20" fill="none" stroke="#141b26" stroke-width="2"/></g><g transform="translate(24 -18) scale(0.9)"><g transform="rotate(270)"><polyline points="-7,-11 8,0 -7,11" fill="none" stroke="#141b26" stroke-width="3.2" stroke-linejoin="round" stroke-linecap="round"/></g></g><g transform="translate(0 20) scale(0.9)"><rect x="-21.0" y="-6" width="6" height="12" fill="#141b26"/><rect x="-12.0" y="-6" width="6" height="12" fill="#141b26"/><rect x="-3.0" y="-6" width="6" height="12" fill="#141b26"/><rect x="6.0" y="-6" width="6" height="12" fill="#141b26"/><rect x="15.0" y="-6" width="6" height="12" fill="#141b26"/></g></g></g><text x="419" y="72" font-size="26" font-weight="bold" text-anchor="middle" fill="#141b26">:</text><g transform="translate(434 8)"><g transform="translate(56 56)"><rect x="-54" y="-54" width="108" height="108" rx="5" fill="#f5f3ee" stroke="#9aa7b8" stroke-width="1.6"/><text x="0" y="15.680000000000001" font-size="44.800000000000004" font-weight="bold" text-anchor="middle" fill="#7d8ba0">?</text></g></g></svg>