<svg xmlns="http://www.w3.org/2000/svg" viewBox="0 0 118 118" width="118"><g transform="translate(59 59)"><rect x="-57" y="-57" width="114" height="114" rx="5" fill="#fff" stroke="#9aa7b8" stroke-width="1.6"/><g transform="rotate(0) scale(1 1)"><g transform="translate(-22 -20) scale(1)"><g transform="rotate(120) scale(1)"><line x1="-17" y1="0" x2="12" y2="0" stroke="#141b26" stroke-width="3"/><polygon points="17,0 8,-6 8,6" fill="#141b26"/><circle cx="-4" cy="0" r="7.5" fill="#141b26"/></g></g><g transform="translate(22 -20) scale(1)"><g transform="rotate(90) scale(1 1)"><path d="M -15 -17 h 11 v 9 h 10 v 10 h -8 v 8 h -13 v -10 h 6 v -7 h -6 z" fill="none" stroke="#141b26" stroke-width="2.4" stroke-linejoin="round"/></g></g><g transform="translate(-22 22) scale(1)"><rect x="-7.5" y="-6" width="6" height="12" fill="#141b26"/><rect x="1.5" y="-6" width="6" height="12" fill="#141b26"/></g></g></g><line x1="59" y1="10" x2="59" y2="108" stroke="#c0392b" stroke-width="1.6" stroke-dasharray="4 3"/></svg>