<svg xmlns="http://www.w3.org/2000/svg" viewBox="0 0 118 118" width="118"><g transform="translate(59 59)"><rect x="-57" y="-57" width="114" height="114" rx="5" fill="#fff" stroke="#9aa7b8" stroke-width="1.6"/><g transform="rotate(0) scale(1 1)"><g transform="translate(-22 -20) scale(1)"><g transform="scale(1.000)"><polygon points="0,-16 5,-5 17,-4 7,3 10,16 0,8 -10,16 -7,3 -17,-4 -5,-5" fill="#141b26"/></g></g><g transform="translate(22 -20) scale(1)"><rect x="-12.0" y="-6" width="6" height="12" fill="#141b26"/><rect x="-3.0" y="-6" width="6" height="12" fill="#141b26"/><rect x="6.0" y="-6" width="6" height="12" fill="#141b26"/></g><g transform="translate(-22 22) scale(1)"><g transform="rotate(60) scale(1)"><line x1="-17" y1="0" x2="12" y2="0" stroke="#141b26" stroke-width="3"/><polygon points="17,0 8,-6 8,6" fill="#141b26"/><circle cx="-4" cy="0" r="7.5" fill="#141b26"/></g></g></g></g><line x1="10" y1="59" x2="108" y2="59" stroke="#c0392b" stroke-width="1.6" stroke-dasharray="4 3"/></svg>