<svg xmlns="http://www.w3.org/2000/svg" viewBox="0 0 310 310" width="310"><g transform="translate(8 8)"><g transform="translate(47 47)"><rect x="-45" y="-45" width="90" height="90" rx="5" fill="#fff" stroke="#9aa7b8" stroke-width="1.6"/><g transform="translate(-19 -15) scale(0.66)"><rect x="-7.5" y="-6" width="6" height="12" fill="#141b26"/><rect x="1.5" y="-6" width="6" height="12" fill="#141b26"/></g><g transform="translate(19 -15) scale(0.66)"><g transform="scale(0.450)"><polygon points="0,-16 5,-5 17,-4 7,3 10,16 0,8 -10,16 -7,3 -17,-4 -5,-5" fill="#141b26"/></g></g><g transform="translate(0 18) scale(0.66)"><g transform="rotate(0)"><polygon points="0.0,-15.0 3.7,-5.1 14.3,-4.6 6.0,1.9 8.8,12.1 0.0,6.3 -8.8,12.1 -6.0,1.9 -14.3,-4.6 -3.7,-5.1" fill="#fff" stroke="#141b26" stroke-width="2.2" stroke-linejoin="round"/></g></g></g></g><g transform="translate(108 8)"><g transform="translate(47 47)"><rect x="-45" y="-45" width="90" height="90" rx="5" fill="#fff" stroke="#9aa7b8" stroke-width="1.6"/><g transform="translate(-19 -15) scale(0.66)"><rect x="-7.5" y="-6" width="6" height="12" fill="#141b26"/><rect x="1.5" y="-6" width="6" height="12" fill="#141b26"/></g><g transform="translate(19 -15) scale(0.66)"><g transform="scale(0.613)"><polygon points="0,-16 5,-5 17,-4 7,3 10,16 0,8 -10,16 -7,3 -17,-4 -5,-5" fill="#141b26"/></g></g><g transform="translate(0 18) scale(0.66)"><g transform="rotate(0)"><polygon points="0.0,-15.0 3.7,-5.1 14.3,-4.6 6.0,1.9 8.8,12.1 0.0,6.3 -8.8,12.1 -6.0,1.9 -14.3,-4.6 -3.7,-5.1" fill="#fff" stroke="#141b26" stroke-width="2.2" stroke-linejoin="round"/></g></g></g></g><g transform="translate(208 8)"><g transform="translate(47 47)"><rect x="-45" y="-45" width="90" height="90" rx="5" fill="#fff" stroke="#9aa7b8" stroke-width="1.6"/><g transform="translate(-19 -15) scale(0.66)"><rect x="-7.5" y="-6" width="6" height="12" fill="#141b26"/><rect x="1.5" y="-6" width="6" height="12" fill="#141b26"/></g><g transform="translate(19 -15) scale(0.66)"><g transform="scale(0.775)"><polygon points="0,-16 5,-5 17,-4 7,3 10,16 0,8 -10,16 -7,3 -17,-4 -5,-5" fill="#141b26"/></g></g><g transform="translate(0 18) scale(0.66)"><g transform="rotate(0)"><polygon points="0.0,-15.0 3.7,-5.1 14.3,-4.6 6.0,1.9 8.8,12.1 0.0,6.3 -8.8,12.1 -6.0,1.9 -14.3,-4.6 -3.7,-5.1" fill="#fff" stroke="#141b26" stroke-width="2.2" stroke-linejoin="round"/></g></g></g></g><g transform="translate(8 108)"><g transform="translate(47 47)"><rect x="-45" y="-45" width="90" height="90" rx="5" fill="#fff" stroke="#9aa7b8" stroke-width="1.6"/><g transform="translate(-19 -15) scale(0.66)"><rect x="-12.0" y="-6" width="6" height="12" fill="#141b26"/><rect x="-3.0" y="-6" width="6" height="12" fill="#141b26"/><rect x="6.0" y="-6" width="6" height="12" fill="#141b26"/></g><g transform="translate(19 -15) scale(0.66)"><g transform="scale(0.450)"><polygon points="0,-16 5,-5 17,-4 7,3 10,16 0,8 -10,16 -7,3 -17,-4 -5,-5" fill="#141b26"/></g></g><g transform="translate(0 18) scale(0.66)"><g transform="rotate(0)"><polygon points="0.0,-15.0 3.7,-5.1 14.3,-4.6 6.0,1.9 8.8,12.1 0.0,6.3 -8.8,12.1 -6.0,1.9 -14.3,-4.6 -3.7,-5.1" fill="#fff" stroke="#141b26" stroke-width="2.2" stroke-linejoin="round"/></g></g></g></g><g transform="translate(108 108)"><g transform="translate(47 47)"><rect x="-45" y="-45" width="90" height="90" rx="5" fill="#fff" stroke="#9aa7b8" stroke-width="1.6"/><g transform="translate(-19 -15) scale(0.66)"><rect x="-12.0" y="-6" width="6" height="12" fill="#141b26"/><rect x="-3.0" y="-6" width="6" height="12" fill="#141b26"/><rect x="6.0" y="-6" width="6" height="12" fill="#141b26"/></g><g transform="translate(19 -15) scale(0.66)"><g transform="scale(0.613)"><polygon points="0,-16 5,-5 17,-4 7,3 10,16 0,8 -10,16 -7,3 -17,-4 -5,-5" fill="#141b26"/></g></g><g transform="translate(0 18) scale(0.66)"><g transform="rotate(0)"><polygon points="0.0,-15.0 3.7,-5.1 14.3,-4.6 6.0,1.9 8.8,12.1 0.0,6.3 -8.8,12.1 -6.0,1.9 -14.3,-4.6 -3.7,-5.1" fill="#fff" stroke="#141b26" stroke-width="2.2" stroke-linejoin="round"/></g></g></g></g><g transform="translate(208 108)"><g transform="translate(47 47)"><rect x="-45" y="-45" width="90" height="90" rx="5" fill="#fff" stroke="#9aa7b8" stroke-width="1.6"/><g transform="translate(-19 -15) scale(0.66)"><rect x="-12.0" y="-6" width="6" height="12" fill="#141b26"/><rect x="-3.0" y="-6" width="6" height="12" fill="#141b26"/><rect x="6.0" y="-6" width="6" height="12" fill="#141b26"/></g><g transform="translate(19 -15) scale(0.66)"><g transform="scale(0.775)"><polygon points="0,-16 5,-5 17,-4 7,3 10,16 0,8 -10,16 -7,3 -17,-4 -5,-5" fill="#141b26"/></g></g><g transform="translate(0 18) scale(0.66)"><g transform="rotate(0)"><polygon points="0.0,-15.0 3.7,-5.1 14.3,-4.6 6.0,1.9 8.8,12.1 0.0,6.3 -8.8,12.1 -6.0,1.9 -14.3,-4.6 -3.7,-5.1" fill="#fff" stroke="#141b26" stroke-width="2.2" stroke-linejoin="round"/></g></g></g></g><g transform="translate(8 208)"><g transform="translate(47 47)"><rect x="-45" y="-45" width="90" height="90" rx="5" fill="#fff" stroke="#9aa7b8" stroke-width="1.6"/><g transform="translate(-19 -15) scale(0.66)"><rect x="-16.5" y="-6" width="6" height="12" fill="#141b26"/><rect x="-7.5" y="-6" width="6" height="12" fill="#141b26"/><rect x="1.5" y="-6" width="6" height="12" fill="#141b26"/><rect x="10.5" y="-6" width="6" height="12" fill="#141b26"/></g><g transform="translate(19 -15) scale(0.66)"><g transform="scale(0.450)"><polygon points="0,-16 5,-5 17,-4 7,3 10,16 0,8 -10,16 -7,3 -17,-4 -5,-5" fill="#141b26"/></g></g><g transform="translate(0 18) scale(0.66)"><g transform="rotate(0)"><polygon points="0.0,-15.0 3.7,-5.1 14.3,-4.6 6.0,1.9 8.8,12.1 0.0,6.3 -8.8,12.1 -6.0,1.9 -14.3,-4.6 -3.7,-5.1" fill="#fff" stroke="#141b26" stroke-width="2.2" stroke-linejoin="round"/></g></g></g></g><g transform="translate(108 208)"><g transform="translate(47 47)"><rect x="-45" y="-45" width="90" height="90" rx="5" fill="#fff" stroke="#9aa7b8" stroke-width="1.6"/><g transform="translate(-19 -15) scale(0.66)"><rect x="-16.5" y="-6" width="6" height="12" fill="#141b26"/><rect x="-7.5" y="-6" width="6" height="12" fill="#141b26"/><rect x="1.5" y="-6" width="6" height="12" fill="#141b26"/><rect x="10.5" y="-6" width="6" height="12" fill="#141b26"/></g><g transform="translate(19 -15) scale(0.66)"><g transform="scale(0.613)"><polygon points="0,-16 5,-5 17,-4 7,3 10,16 0,8 -10,16 -7,3 -17,-4 -5,-5" fill="#141b26"/></g></g><g transform="translate(0 18) scale(0.66)"><g transform="rotate(0)"><polygon points="0.0,-15.0 3.7,-5.1 14.3,-4.6 6.0,1.9 8.8,12.1 0.0,6.3 -8.8,12.1 -6.0,1.9 -14.3,-4.6 -3.7,-5.1" fill="#fff" stroke="#141b26" stroke-width="2.2" stroke-linejoin="round"/></g></g></g></g><g transform="translate(208 208)"><g transform="translate(47 47)"><rect x="-45" y="-45" width="90" height="90" rx="5" fill="#f5f3ee" stroke="#9aa7b8" stroke-width="1.6"/><text x="0" y="13.160000000000002" font-size="37.6" font-weight="bold" text-anchor="middle" fill="#7d8ba0">?</text></g></g></svg>