<svg xmlns="http://www.w3.org/2000/svg" viewBox="0 0 310 310" width="310"><g transform="translate(8 8)"><g transform="translate(47 47)"><rect x="-45" y="-45" width="90" height="90" rx="5" fill="#fff" stroke="#9aa7b8" stroke-width="1.6"/><g transform="translate(-19 -15) scale(0.66)"><circle r="5" fill="none" stroke="#141b26" stroke-width="2"/></g><g transform="translate(19 -15) scale(0.66)"><g transform="rotate(0)"><polygon points="0.0,-17.3 4.3,-5.9 16.4,-5.3 6.9,2.2 10.1,14.0 0.0,7.2 -10.1,14.0 -6.9,2.2 -16.4,-5.3 -4.3,-5.9" fill="#fff" stroke="#141b26" stroke-width="2.2" stroke-linejoin="round"/></g></g><g transform="translate(0 18) scale(0.66)"><g transform="scale(1.000)"><polygon points="0,-16 5,-5 17,-4 7,3 10,16 0,8 -10,16 -7,3 -17,-4 -5,-5" fill="#141b26"/></g></g></g></g><g transform="translate(108 8)"><g transform="translate(47 47)"><rect x="-45" y="-45" width="90" height="90" rx="5" fill="#fff" stroke="#9aa7b8" stroke-width="1.6"/><g transform="translate(-19 -15) scale(0.66)"><circle r="5" fill="none" stroke="#141b26" stroke-width="2"/></g><g transform="translate(19 -15) scale(0.66)"><g transform="rotate(0)"><polygon points="0.0,-14.4 3.6,-4.9 13.7,-4.5 5.8,1.9 8.5,11.7 0.0,6.1 -8.5,11.7 -5.8,1.9 -13.7,-4.5 -3.6,-4.9" fill="#fff" stroke="#141b26" stroke-width="2.2" stroke-linejoin="round"/></g></g><g transform="translate(0 18) scale(0.66)"><g transform="scale(1.000)"><polygon points="0,-16 5,-5 17,-4 7,3 10,16 0,8 -10,16 -7,3 -17,-4 -5,-5" fill="#141b26"/></g></g></g></g><g transform="translate(208 8)"><g transform="translate(47 47)"><rect x="-45" y="-45" width="90" height="90" rx="5" fill="#fff" stroke="#9aa7b8" stroke-width="1.6"/><g transform="translate(-19 -15) scale(0.66)"><circle r="5" fill="none" stroke="#141b26" stroke-width="2"/></g><g transform="translate(19 -15) scale(0.66)"><g transform="rotate(0)"><polygon points="0.0,-11.6 2.9,-4.0 11.1,-3.6 4.6,1.5 6.8,9.4 0.0,4.9 -6.8,9.4 -4.6,1.5 -11.1,-3.6 -2.9,-4.0" fill="#fff" stroke="#141b26" stroke-width="2.2" stroke-linejoin="round"/></g></g><g transform="translate(0 18) scale(0.66)"><g transform="scale(1.000)"><polygon points="0,-16 5,-5 17,-4 7,3 10,16 0,8 -10,16 -7,3 -17,-4 -5,-5" fill="#141b26"/></g></g></g></g><g transform="translate(8 108)"><g transform="translate(47 47)"><rect x="-45" y="-45" width="90" height="90" rx="5" fill="#fff" stroke="#9aa7b8" stroke-width="1.6"/><g transform="translate(-19 -15) scale(0.66)"><circle r="5" fill="none" stroke="#141b26" stroke-width="2"/><circle r="10" fill="none" stroke="#141b26" stroke-width="2"/></g><g transform="translate(19 -15) scale(0.66)"><g transform="rotate(0)"><polygon points="0.0,-17.3 4.3,-5.9 16.4,-5.3 6.9,2.2 10.1,14.0 0.0,7.2 -10.1,14.0 -6.9,2.2 -16.4,-5.3 -4.3,-5.9" fill="#fff" stroke="#141b26" stroke-width="2.2" stroke-linejoin="round"/></g></g><g transform="translate(0 18) scale(0.66)"><g transform="scale(1.000)"><polygon points="0,-16 5,-5 17,-4 7,3 10,16 0,8 -10,16 -7,3 -17,-4 -5,-5" fill="#141b26"/></g></g></g></g><g transform="translate(108 108)"><g transform="translate(47 47)"><rect x="-45" y="-45" width="90" height="90" rx="5" fill="#fff" stroke="#9aa7b8" stroke-width="1.6"/><g transform="translate(-19 -15) scale(0.66)"><circle r="5" fill="none" stroke="#141b26" stroke-width="2"/><circle r="10" fill="none" stroke="#141b26" stroke-width="2"/></g><g transform="translate(19 -15) scale(0.66)"><g transform="rotate(0)"><polygon points="0.0,-14.4 3.6,-4.9 13.7,-4.5 5.8,1.9 8.5,11.7 0.0,6.1 -8.5,11.7 -5.8,1.9 -13.7,-4.5 -3.6,-4.9" fill="#fff" stroke="#141b26" stroke-width="2.2" stroke-linejoin="round"/></g></g><g transform="translate(0 18) scale(0.66)"><g transform="scale(1.000)"><polygon points="0,-16 5,-5 17,-4 7,3 10,16 0,8 -10,16 -7,3 -17,-4 -5,-5" fill="#141b26"/></g></g></g></g><g transform="translate(208 108)"><g transform="translate(47 47)"><rect x="-45" y="-45" width="90" height="90" rx="5" fill="#fff" stroke="#9aa7b8" stroke-width="1.6"/><g transform="translate(-19 -15) scale(0.66)"><circle r="5" fill="none" stroke="#141b26" stroke-width="2"/><circle r="10" fill="none" stroke="#141b26" stroke-width="2"/></g><g transform="translate(19 -15) scale(0.66)"><g transform="rotate(0)"><polygon points="0.0,-11.6 2.9,-4.0 11.1,-3.6 4.6,1.5 6.8,9.4 0.0,4.9 -6.8,9.4 -4.6,1.5 -11.1,-3.6 -2.9,-4.0" fill="#fff" stroke="#141b26" stroke-width="2.2" stroke-linejoin="round"/></g></g><g transform="translate(0 18) scale(0.66)"><g transform="scale(1.000)"><polygon points="0,-16 5,-5 17,-4 7,3 10,16 0,8 -10,16 -7,3 -17,-4 -5,-5" fill="#141b26"/></g></g></g></g><g transform="translate(8 208)"><g transform="translate(47 47)"><rect x="-45" y="-45" width="90" height="90" rx="5" fill="#fff" stroke="#9aa7b8" stroke-width="1.6"/><g transform="translate(-19 -15) scale(0.66)"><circle r="5" fill="none" stroke="#141b26" stroke-width="2"/><circle r="10" fill="none" stroke="#141b26" stroke-width="2"/><circle r="15" fill="none" stroke="#141b26" stroke-width="2"/></g><g transform="translate(19 -15) scale(0.66)"><g transform="rotate(0)"><polygon points="0.0,-17.3 4.3,-5.9 16.4,-5.3 6.9,2.2 10.1,14.0 0.0,7.2 -10.1,14.0 -6.9,2.2 -16.4,-5.3 -4.3,-5.9" fill="#fff" stroke="#141b26" stroke-width="2.2" stroke-linejoin="round"/></g></g><g transform="translate(0 18) scale(0.66)"><g transform="scale(1.000)"><polygon points="0,-16 5,-5 17,-4 7,3 10,16 0,8 -10,16 -7,3 -17,-4 -5,-5" fill="#141b26"/></g></g></g></g><g transform="translate(108 208)"><g transform="translate(47 47)"><rect x="-45" y="-45" width="90" height="90" rx="5" fill="#fff" stroke="#9aa7b8" stroke-width="1.6"/><g transform="translate(-19 -15) scale(0.66)"><circle r="5" fill="none" stroke="#141b26" stroke-width="2"/><circle r="10" fill="none" stroke="#141b26" stroke-width="2"/><circle r="15" fill="none" stroke="#141b26" stroke-width="2"/></g><g transform="translate(19 -15) scale(0.66)"><g transform="rotate(0)"><polygon points="0.0,-14.4 3.6,-4.9 13.7,-4.5 5.8,1.9 8.5,11.7 0.0,6.1 -8.5,11.7 -5.8,1.9 -13.7,-4.5 -3.6,-4.9" fill="#fff" stroke="#141b26" stroke-width="2.2" stroke-linejoin="round"/></g></g><g transform="translate(0 18) scale(0.66)"><g transform="scale(1.000)"><polygon points="0,-16 5,-5 17,-4 7,3 10,16 0,8 -10,16 -7,3 -17,-4 -5,-5" fill="#141b26"/></g></g></g></g><g transform="translate(208 208)"><g transform="translate(47 47)"><rect x="-45" y="-45" width="90" height="90" rx="5" fill="#f5f3ee" stroke="#9aa7b8" stroke-width="1.6"/><text x="0" y="13.160000000000002" font-size="37.6" font-weight="bold" text-anchor="middle" fill="#7d8ba0">?</text></g></g></svg>