<svg xmlns="http://www.w3.org/2000/svg" viewBox="0 0 94 94" width="94"><g transform="translate(47 47)"><rect x="-45" y="-45" width="90" height="90" rx="5" fill="#fff" stroke="#9aa7b8" stroke-width="1.6"/><g transform="translate(-19 -15) scale(0.66)"><rect x="-7.5" y="-6" width="6" height="12" fill="#141b26"/><rect x="1.5" y="-6" width="6" height="12" fill="#141b26"/></g><g transform="translate(19 -15) scale(0.66)"><g transform="scale(0.725)"><polygon points="0,-16 5,-5 17,-4 7,3 10,16 0,8 -10,16 -7,3 -17,-4 -5,-5" fill="#141b26"/></g></g><g transform="translate(0 18) scale(0.66)"><g transform="rotate(0) scale(1 1)"><path d="M -15 -17 h 11 v 9 h 10 v 10 h -8 v 8 h -13 v -10 h 6 v -7 h -6 z" fill="none" stroke="#141b26" stroke-width="2.4" stroke-linejoin="round"/></g></g></g></svg>