<svg xmlns="http://www.w3.org/2000/svg" viewBox="0 0 94 94" width="94"><g transform="translate(47 47)"><rect x="-45" y="-45" width="90" height="90" rx="5" fill="#fff" stroke="#9aa7b8" stroke-width="1.6"/><g transform="translate(-19 -15) scale(0.66)"><g transform="scale(1)"><path d="M 0 0 L -6.2,-9.1 A 11 11 0 1 1 6.2,-9.1 Z" fill="#fff" stroke="#141b26" stroke-width="2"/></g></g><g transform="translate(19 -15) scale(0.66)"><g transform="scale(0.725)"><polygon points="0,-16 5,-5 17,-4 7,3 10,16 0,8 -10,16 -7,3 -17,-4 -5,-5" fill="#141b26"/></g></g><g transform="translate(0 18) scale(0.66)"><g transform="rotate(0)"><polygon points="0.0,-15.0 3.7,-5.1 14.3,-4.6 6.0,1.9 8.8,12.1 0.0,6.3 -8.8,12.1 -6.0,1.9 -14.3,-4.6 -3.7,-5.1" fill="#fff" stroke="#141b26" stroke-width="2.2" stroke-linejoin="round"/></g></g></g></svg>