<svg xmlns="http://www.w3.org/2000/svg" viewBox="0 0 104 104" width="104"><g transform="translate(52 52)"><rect x="-50" y="-50" width="100" height="100" rx="5" fill="#fff" stroke="#9aa7b8" stroke-width="1.6"/><g transform="rotate(270) scale(1 1)"><g transform="translate(-22 -20) scale(0.92)"><g transform="rotate(0) scale(1 1)"><path d="M -15 -17 h 11 v 9 h 10 v 10 h -8 v 8 h -13 v -10 h 6 v -7 h -6 z" fill="none" stroke="#141b26" stroke-width="2.4" stroke-linejoin="round"/></g></g><g transform="translate(22 -20) scale(0.92)"><g transform="rotate(60) scale(1)"><line x1="-17" y1="0" x2="12" y2="0" stroke="#141b26" stroke-width="3"/><polygon points="17,0 8,-6 8,6" fill="#141b26"/><circle cx="-4" cy="0" r="7.5" fill="#141b26"/></g></g><g transform="translate(-22 22) scale(0.92)"><g transform="scale(1.000)"><polygon points="0,-16 5,-5 17,-4 7,3 10,16 0,8 -10,16 -7,3 -17,-4 -5,-5" fill="#141b26"/></g></g></g></g></svg>