<svg xmlns="http://www.w3.org/2000/svg" viewBox="0 0 134 134" width="134"><g transform="translate(67 67)"><rect x="-65" y="-65" width="130" height="130" rx="5" fill="#fff" stroke="#9aa7b8" stroke-width="1.6"/><g transform="translate(-34 -30) scale(1)"><path d="M 0 0 L 2.1,-10.8 A 11 11 0 1 1 10.8,-2.1 Z" fill="#fff" stroke="#141b26" stroke-width="2"/></g><g transform="translate(34 -30) scale(1)"><rect x="-16.5" y="-6" width="6" height="12" fill="#141b26"/><rect x="-7.5" y="-6" width="6" height="12" fill="#141b26"/><rect x="1.5" y="-6" width="6" height="12" fill="#141b26"/><rect x="10.5" y="-6" width="6" height="12" fill="#141b26"/></g><g transform="translate(-34 32) scale(1)"><g transform="rotate(-90)"><line x1="-17" y1="0" x2="12" y2="0" stroke="#141b26" stroke-width="3"/><polygon points="17,0 8,-6 8,6" fill="#141b26"/><circle cx="-4" cy="0" r="7.5" fill="#141b26"/></g></g><g transform="translate(34 32) scale(1)"><g transform="rotate(0)"><polygon points="0.0,-14.0 14.0,0.0 0.0,14.0 -14.0,0.0" fill="#fff" stroke="#141b26" stroke-width="2.2" stroke-linejoin="round"/></g></g></g></svg>