<svg xmlns="http://www.w3.org/2000/svg" viewBox="0 0 726 150" width="726"><g transform="translate(8 8)"><g transform="translate(67 67)"><rect x="-65" y="-65" width="130" height="130" rx="5" fill="#fff" stroke="#9aa7b8" stroke-width="1.6"/><g transform="translate(-36 -30) scale(1)"><g transform="scale(0.45)"><path d="M 0 0 L 9.1,-6.2 A 11 11 0 1 1 9.1,6.2 Z" fill="#fff" stroke="#141b26" stroke-width="2"/></g></g><g transform="translate(0 -32) scale(1)"><g transform="rotate(0) scale(1 1)"><path d="M -15 -17 h 11 v 9 h 10 v 10 h -8 v 8 h -13 v -10 h 6 v -7 h -6 z" fill="none" stroke="#141b26" stroke-width="2.4" stroke-linejoin="round"/></g></g><g transform="translate(36 -30) scale(1)"><g transform="scale(0.450)"><polygon points="0,-16 5,-5 17,-4 7,3 10,16 0,8 -10,16 -7,3 -17,-4 -5,-5" fill="#141b26"/></g></g><g transform="translate(-22 34) scale(1)"><g transform="rotate(0) scale(1.15)"><line x1="-17" y1="0" x2="12" y2="0" stroke="#141b26" stroke-width="3"/><polygon points="17,0 8,-6 8,6" fill="#141b26"/><circle cx="-4" cy="0" r="7.5" fill="#141b26"/></g></g><g transform="translate(26 34) scale(1)"><g transform="rotate(0)"><polygon points="0.0,-14.0 14.0,0.0 0.0,14.0 -14.0,0.0" fill="#fff" stroke="#141b26" stroke-width="2.2" stroke-linejoin="round"/></g></g></g></g><g transform="translate(152 8)"><g transform="translate(67 67)"><rect x="-65" y="-65" width="130" height="130" rx="5" fill="#fff" stroke="#9aa7b8" stroke-width="1.6"/><g transform="translate(-36 -30) scale(1)"><g transform="scale(0.588)"><path d="M 0 0 L 9.1,-6.2 A 11 11 0 1 1 9.1,6.2 Z" fill="#fff" stroke="#141b26" stroke-width="2"/></g></g><g transform="translate(0 -32) scale(1)"><g transform="rotate(90) scale(1 1)"><path d="M -15 -17 h 11 v 9 h 10 v 10 h -8 v 8 h -13 v -10 h 6 v -7 h -6 z" fill="none" stroke="#141b26" stroke-width="2.4" stroke-linejoin="round"/></g></g><g transform="translate(36 -30) scale(1)"><g transform="scale(0.588)"><polygon points="0,-16 5,-5 17,-4 7,3 10,16 0,8 -10,16 -7,3 -17,-4 -5,-5" fill="#141b26"/></g></g><g transform="translate(-22 34) scale(1)"><g transform="rotate(0) scale(0.962)"><line x1="-17" y1="0" x2="12" y2="0" stroke="#141b26" stroke-width="3"/><polygon points="17,0 8,-6 8,6" fill="#141b26"/><circle cx="-4" cy="0" r="7.5" fill="#141b26"/></g></g><g transform="translate(26 34) scale(1)"><g transform="rotate(0)"><polygon points="0.0,-14.0 14.0,0.0 0.0,14.0 -14.0,0.0" fill="#141b26" stroke="#141b26" stroke-width="2.2" stroke-linejoin="round"/></g></g></g></g><g transform="translate(296 8)"><g transform="translate(67 67)"><rect x="-65" y="-65" width="130" height="130" rx="5" fill="#fff" stroke="#9aa7b8" stroke-width="1.6"/><g transform="translate(-36 -30) scale(1)"><g transform="scale(0.725)"><path d="M 0 0 L 9.1,-6.2 A 11 11 0 1 1 9.1,6.2 Z" fill="#fff" stroke="#141b26" stroke-width="2"/></g></g><g transform="translate(0 -32) scale(1)"><g transform="rotate(180) scale(1 1)"><path d="M -15 -17 h 11 v 9 h 10 v 10 h -8 v 8 h -13 v -10 h 6 v -7 h -6 z" fill="none" stroke="#141b26" stroke-width="2.4" stroke-linejoin="round"/></g></g><g transform="translate(36 -30) scale(1)"><g transform="scale(0.725)"><polygon points="0,-16 5,-5 17,-4 7,3 10,16 0,8 -10,16 -7,3 -17,-4 -5,-5" fill="#141b26"/></g></g><g transform="translate(-22 34) scale(1)"><g transform="rotate(0) scale(0.775)"><line x1="-17" y1="0" x2="12" y2="0" stroke="#141b26" stroke-width="3"/><polygon points="17,0 8,-6 8,6" fill="#141b26"/><circle cx="-4" cy="0" r="7.5" fill="#141b26"/></g></g><g transform="translate(26 34) scale(1)"><g transform="rotate(0)"><polygon points="0.0,-14.0 14.0,0.0 0.0,14.0 -14.0,0.0" fill="#fff" stroke="#141b26" stroke-width="2.2" stroke-linejoin="round"/></g></g></g></g><g transform="translate(440 8)"><g transform="translate(67 67)"><rect x="-65" y="-65" width="130" height="130" rx="5" fill="#f5f3ee" stroke="#9aa7b8" stroke-width="1.6"/><text x="0" y="18.76" font-size="53.6" font-weight="bold" text-anchor="middle" fill="#7d8ba0">?</text></g></g><g transform="translate(584 8)"><g transform="translate(67 67)"><rect x="-65" y="-65" width="130" height="130" rx="5" fill="#fff" stroke="#9aa7b8" stroke-width="1.6"/><g transform="translate(-36 -30) scale(1)"><g transform="scale(1)"><path d="M 0 0 L 9.1,-6.2 A 11 11 0 1 1 9.1,6.2 Z" fill="#fff" stroke="#141b26" stroke-width="2"/></g></g><g transform="translate(0 -32) scale(1)"><g transform="rotate(360) scale(1 1)"><path d="M -15 -17 h 11 v 9 h 10 v 10 h -8 v 8 h -13 v -10 h 6 v -7 h -6 z" fill="none" stroke="#141b26" stroke-width="2.4" stroke-linejoin="round"/></g></g><g transform="translate(36 -30) scale(1)"><g transform="scale(1.000)"><polygon points="0,-16 5,-5 17,-4 7,3 10,16 0,8 -10,16 -7,3 -17,-4 -5,-5" fill="#141b26"/></g></g><g transform="translate(-22 34) scale(1)"><g transform="rotate(0) scale(0.4)"><line x1="-17" y1="0" x2="12" y2="0" stroke="#141b26" stroke-width="3"/><polygon points="17,0 8,-6 8,6" fill="#141b26"/><circle cx="-4" cy="0" r="7.5" fill="#141b26"/></g></g><g transform="translate(26 34) scale(1)"><g transform="rotate(0)"><polygon points="0.0,-14.0 14.0,0.0 0.0,14.0 -14.0,0.0" fill="#fff" stroke="#141b26" stroke-width="2.2" stroke-linejoin="round"/></g></g></g></g></svg>