<svg xmlns="http://www.w3.org/2000/svg" viewBox="0 0 726 150" width="726"><g transform="translate(8 8)"><g transform="translate(67 67)"><rect x="-65" y="-65" width="130" height="130" rx="5" fill="#fff" stroke="#9aa7b8" stroke-width="1.6"/><g transform="translate(-36 -30) scale(1)"><g transform="scale(1.150)"><polygon points="0,-16 5,-5 17,-4 7,3 10,16 0,8 -10,16 -7,3 -17,-4 -5,-5" fill="#141b26"/></g></g><g transform="translate(0 -32) scale(1)"><g transform="rotate(180) scale(1)"><polyline points="-7,-11 8,0 -7,11" fill="none" stroke="#141b26" stroke-width="3.2" stroke-linejoin="round" stroke-linecap="round"/></g></g><g transform="translate(36 -30) scale(1)"><g transform="rotate(0)"><polygon points="0.0,-17.3 4.3,-5.9 16.4,-5.3 6.9,2.2 10.1,14.0 0.0,7.2 -10.1,14.0 -6.9,2.2 -16.4,-5.3 -4.3,-5.9" fill="#fff" stroke="#141b26" stroke-width="2.2" stroke-linejoin="round"/></g></g><g transform="translate(-36 32) scale(1)"><g transform="rotate(0) scale(1 1)"><path d="M -15 -17 h 11 v 9 h 10 v 10 h -8 v 8 h -13 v -10 h 6 v -7 h -6 z" fill="none" stroke="#141b26" stroke-width="2.4" stroke-linejoin="round"/></g></g><g transform="translate(0 32) scale(1)"><g transform="scale(1)"><path d="M 0 0 L 9.1,-6.2 A 11 11 0 1 1 9.1,6.2 Z" fill="#fff" stroke="#141b26" stroke-width="2"/></g></g><g transform="translate(36 32) scale(1)"><g transform="rotate(0)"><polygon points="0.0,-14.0 14.0,0.0 0.0,14.0 -14.0,0.0" fill="#fff" stroke="#141b26" stroke-width="2.2" stroke-linejoin="round"/></g></g></g></g><g transform="translate(152 8)"><g transform="translate(67 67)"><rect x="-65" y="-65" width="130" height="130" rx="5" fill="#fff" stroke="#9aa7b8" stroke-width="1.6"/><g transform="translate(-36 -30) scale(1)"><g transform="scale(0.962)"><polygon points="0,-16 5,-5 17,-4 7,3 10,16 0,8 -10,16 -7,3 -17,-4 -5,-5" fill="#141b26"/></g></g><g transform="translate(0 -32) scale(1)"><g transform="rotate(90) scale(1)"><polyline points="-7,-11 8,0 -7,11" fill="none" stroke="#141b26" stroke-width="3.2" stroke-linejoin="round" stroke-linecap="round"/></g></g><g transform="translate(36 -30) scale(1)"><g transform="rotate(0)"><polygon points="0.0,-14.4 3.6,-4.9 13.7,-4.5 5.8,1.9 8.5,11.7 0.0,6.1 -8.5,11.7 -5.8,1.9 -13.7,-4.5 -3.6,-4.9" fill="#fff" stroke="#141b26" stroke-width="2.2" stroke-linejoin="round"/></g></g><g transform="translate(-36 32) scale(1)"><g transform="rotate(0) scale(-1 1)"><path d="M -15 -17 h 11 v 9 h 10 v 10 h -8 v 8 h -13 v -10 h 6 v -7 h -6 z" fill="none" stroke="#141b26" stroke-width="2.4" stroke-linejoin="round"/></g></g><g transform="translate(0 32) scale(1)"><g transform="scale(1)"><path d="M 0 0 L -6.2,-9.1 A 11 11 0 1 1 6.2,-9.1 Z" fill="#fff" stroke="#141b26" stroke-width="2"/></g></g><g transform="translate(36 32) scale(1)"><g transform="rotate(0)"><polygon points="0.0,-14.0 14.0,0.0 0.0,14.0 -14.0,0.0" fill="#141b26" stroke="#141b26" stroke-width="2.2" stroke-linejoin="round"/></g></g></g></g><g transform="translate(296 8)"><g transform="translate(67 67)"><rect x="-65" y="-65" width="130" height="130" rx="5" fill="#fff" stroke="#9aa7b8" stroke-width="1.6"/><g transform="translate(-36 -30) scale(1)"><g transform="scale(0.775)"><polygon points="0,-16 5,-5 17,-4 7,3 10,16 0,8 -10,16 -7,3 -17,-4 -5,-5" fill="#141b26"/></g></g><g transform="translate(0 -32) scale(1)"><g transform="rotate(0) scale(1)"><polyline points="-7,-11 8,0 -7,11" fill="none" stroke="#141b26" stroke-width="3.2" stroke-linejoin="round" stroke-linecap="round"/></g></g><g transform="translate(36 -30) scale(1)"><g transform="rotate(0)"><polygon points="0.0,-11.6 2.9,-4.0 11.1,-3.6 4.6,1.5 6.8,9.4 0.0,4.9 -6.8,9.4 -4.6,1.5 -11.1,-3.6 -2.9,-4.0" fill="#fff" stroke="#141b26" stroke-width="2.2" stroke-linejoin="round"/></g></g><g transform="translate(-36 32) scale(1)"><g transform="rotate(0) scale(1 1)"><path d="M -15 -17 h 11 v 9 h 10 v 10 h -8 v 8 h -13 v -10 h 6 v -7 h -6 z" fill="none" stroke="#141b26" stroke-width="2.4" stroke-linejoin="round"/></g></g><g transform="translate(0 32) scale(1)"><g transform="scale(1)"><path d="M 0 0 L -9.1,6.2 A 11 11 0 1 1 -9.1,-6.2 Z" fill="#fff" stroke="#141b26" stroke-width="2"/></g></g><g transform="translate(36 32) scale(1)"><g transform="rotate(0)"><polygon points="0.0,-14.0 14.0,0.0 0.0,14.0 -14.0,0.0" fill="#fff" stroke="#141b26" stroke-width="2.2" stroke-linejoin="round"/></g></g></g></g><g transform="translate(440 8)"><g transform="translate(67 67)"><rect x="-65" y="-65" width="130" height="130" rx="5" fill="#fff" stroke="#9aa7b8" stroke-width="1.6"/><g transform="translate(-36 -30) scale(1)"><g transform="scale(0.588)"><polygon points="0,-16 5,-5 17,-4 7,3 10,16 0,8 -10,16 -7,3 -17,-4 -5,-5" fill="#141b26"/></g></g><g transform="translate(0 -32) scale(1)"><g transform="rotate(-90) scale(1)"><polyline points="-7,-11 8,0 -7,11" fill="none" stroke="#141b26" stroke-width="3.2" stroke-linejoin="round" stroke-linecap="round"/></g></g><g transform="translate(36 -30) scale(1)"><g transform="rotate(0)"><polygon points="0.0,-8.8 2.2,-3.0 8.4,-2.7 3.5,1.1 5.2,7.1 0.0,3.7 -5.2,7.1 -3.5,1.1 -8.4,-2.7 -2.2,-3.0" fill="#fff" stroke="#141b26" stroke-width="2.2" stroke-linejoin="round"/></g></g><g transform="translate(-36 32) scale(1)"><g transform="rotate(0) scale(-1 1)"><path d="M -15 -17 h 11 v 9 h 10 v 10 h -8 v 8 h -13 v -10 h 6 v -7 h -6 z" fill="none" stroke="#141b26" stroke-width="2.4" stroke-linejoin="round"/></g></g><g transform="translate(0 32) scale(1)"><g transform="scale(1)"><path d="M 0 0 L 6.2,9.1 A 11 11 0 1 1 -6.2,9.1 Z" fill="#fff" stroke="#141b26" stroke-width="2"/></g></g><g transform="translate(36 32) scale(1)"><g transform="rotate(0)"><polygon points="0.0,-14.0 14.0,0.0 0.0,14.0 -14.0,0.0" fill="#141b26" stroke="#141b26" stroke-width="2.2" stroke-linejoin="round"/></g></g></g></g><g transform="translate(584 8)"><g transform="translate(67 67)"><rect x="-65" y="-65" width="130" height="130" rx="5" fill="#f5f3ee" stroke="#9aa7b8" stroke-width="1.6"/><text x="0" y="18.76" font-size="53.6" font-weight="bold" text-anchor="middle" fill="#7d8ba0">?</text></g></g></svg>