<svg xmlns="http://www.w3.org/2000/svg" viewBox="0 0 726 150" width="726"><g transform="translate(8 8)"><g transform="translate(67 67)"><rect x="-65" y="-65" width="130" height="130" rx="5" fill="#fff" stroke="#9aa7b8" stroke-width="1.6"/><g transform="translate(-34 -30) scale(1)"><g transform="rotate(0)"><polygon points="0.0,-14.0 14.0,0.0 0.0,14.0 -14.0,0.0" fill="#fff" stroke="#141b26" stroke-width="2.2" stroke-linejoin="round"/></g></g><g transform="translate(34 -30) scale(1)"><rect x="-7.5" y="-6" width="6" height="12" fill="#141b26"/><rect x="1.5" y="-6" width="6" height="12" fill="#141b26"/></g><g transform="translate(-34 32) scale(1)"><circle r="5" fill="none" stroke="#141b26" stroke-width="2"/></g><g transform="translate(34 32) scale(1)"><g transform="rotate(0)"><polyline points="-7,-11 8,0 -7,11" fill="none" stroke="#141b26" stroke-width="3.2" stroke-linejoin="round" stroke-linecap="round"/></g></g></g></g><g transform="translate(152 8)"><g transform="translate(67 67)"><rect x="-65" y="-65" width="130" height="130" rx="5" fill="#fff" stroke="#9aa7b8" stroke-width="1.6"/><g transform="translate(-34 -30) scale(1)"><g transform="rotate(0)"><polygon points="0.0,-14.0 14.0,0.0 0.0,14.0 -14.0,0.0" fill="#141b26" stroke="#141b26" stroke-width="2.2" stroke-linejoin="round"/></g></g><g transform="translate(34 -30) scale(1)"><rect x="-12.0" y="-6" width="6" height="12" fill="#141b26"/><rect x="-3.0" y="-6" width="6" height="12" fill="#141b26"/><rect x="6.0" y="-6" width="6" height="12" fill="#141b26"/></g><g transform="translate(-34 32) scale(1)"><circle r="5" fill="none" stroke="#141b26" stroke-width="2"/><circle r="10" fill="none" stroke="#141b26" stroke-width="2"/></g><g transform="translate(34 32) scale(1)"><g transform="rotate(-90)"><polyline points="-7,-11 8,0 -7,11" fill="none" stroke="#141b26" stroke-width="3.2" stroke-linejoin="round" stroke-linecap="round"/></g></g></g></g><g transform="translate(296 8)"><g transform="translate(67 67)"><rect x="-65" y="-65" width="130" height="130" rx="5" fill="#fff" stroke="#9aa7b8" stroke-width="1.6"/><g transform="translate(-34 -30) scale(1)"><g transform="rotate(0)"><polygon points="0.0,-14.0 14.0,0.0 0.0,14.0 -14.0,0.0" fill="#fff" stroke="#141b26" stroke-width="2.2" stroke-linejoin="round"/></g></g><g transform="translate(34 -30) scale(1)"><rect x="-16.5" y="-6" width="6" height="12" fill="#141b26"/><rect x="-7.5" y="-6" width="6" height="12" fill="#141b26"/><rect x="1.5" y="-6" width="6" height="12" fill="#141b26"/><rect x="10.5" y="-6" width="6" height="12" fill="#141b26"/></g><g transform="translate(-34 32) scale(1)"><circle r="5" fill="none" stroke="#141b26" stroke-width="2"/><circle r="10" fill="none" stroke="#141b26" stroke-width="2"/><circle r="15" fill="none" stroke="#141b26" stroke-width="2"/></g><g transform="translate(34 32) scale(1)"><g transform="rotate(-180)"><polyline points="-7,-11 8,0 -7,11" fill="none" stroke="#141b26" stroke-width="3.2" stroke-linejoin="round" stroke-linecap="round"/></g></g></g></g><g transform="translate(440 8)"><g transform="translate(67 67)"><rect x="-65" y="-65" width="130" height="130" rx="5" fill="#fff" stroke="#9aa7b8" stroke-width="1.6"/><g transform="translate(-34 -30) scale(1)"><g transform="rotate(0)"><polygon points="0.0,-14.0 14.0,0.0 0.0,14.0 -14.0,0.0" fill="#141b26" stroke="#141b26" stroke-width="2.2" stroke-linejoin="round"/></g></g><g transform="translate(34 -30) scale(1)"><rect x="-21.0" y="-6" width="6" height="12" fill="#141b26"/><rect x="-12.0" y="-6" width="6" height="12" fill="#141b26"/><rect x="-3.0" y="-6" width="6" height="12" fill="#141b26"/><rect x="6.0" y="-6" width="6" height="12" fill="#141b26"/><rect x="15.0" y="-6" width="6" height="12" fill="#141b26"/></g><g transform="translate(-34 32) scale(1)"><circle r="5" fill="none" stroke="#141b26" stroke-width="2"/><circle r="10" fill="none" stroke="#141b26" stroke-width="2"/><circle r="15" fill="none" stroke="#141b26" stroke-width="2"/><circle r="20" fill="none" stroke="#141b26" stroke-width="2"/></g><g transform="translate(34 32) scale(1)"><g transform="rotate(-270)"><polyline points="-7,-11 8,0 -7,11" fill="none" stroke="#141b26" stroke-width="3.2" stroke-linejoin="round" stroke-linecap="round"/></g></g></g></g><g transform="translate(584 8)"><g transform="translate(67 67)"><rect x="-65" y="-65" width="130" height="130" rx="5" fill="#f5f3ee" stroke="#9aa7b8" stroke-width="1.6"/><text x="0" y="18.76" font-size="53.6" font-weight="bold" text-anchor="middle" fill="#7d8ba0">?</text></g></g></svg>