<svg xmlns="http://www.w3.org/2000/svg" viewBox="0 0 134 134" width="134"><g transform="translate(67 67)"><rect x="-65" y="-65" width="130" height="130" rx="5" fill="#fff" stroke="#9aa7b8" stroke-width="1.6"/><g transform="translate(-34 -30) scale(1)"><g transform="rotate(0)"><polygon points="0.0,-15.0 4.1,-7.1 13.0,-7.5 8.3,0.0 13.0,7.5 4.1,7.1 0.0,15.0 -4.1,7.1 -13.0,7.5 -8.3,0.0 -13.0,-7.5 -4.1,-7.1" fill="#fff" stroke="#141b26" stroke-width="2.2" stroke-linejoin="round"/></g></g><g transform="translate(34 -30) scale(1)"><g transform="scale(1)"><path d="M 0 0 L 10.8,2.1 A 11 11 0 1 1 2.1,10.8 Z" fill="#fff" stroke="#141b26" stroke-width="2"/></g></g><g transform="translate(-34 32) scale(1)"><g transform="rotate(0)"><polygon points="0.0,-14.0 12.1,7.0 -12.1,7.0" fill="#fff" stroke="#141b26" stroke-width="2.2" stroke-linejoin="round"/></g></g><g transform="translate(34 32) scale(1)"><rect x="-25.5" y="-6" width="6" height="12" fill="#141b26"/><rect x="-16.5" y="-6" width="6" height="12" fill="#141b26"/><rect x="-7.5" y="-6" width="6" height="12" fill="#141b26"/><rect x="1.5" y="-6" width="6" height="12" fill="#141b26"/><rect x="10.5" y="-6" width="6" height="12" fill="#141b26"/><rect x="19.5" y="-6" width="6" height="12" fill="#141b26"/></g></g></svg>