<svg xmlns="http://www.w3.org/2000/svg" viewBox="0 0 134 134" width="134"><g transform="translate(67 67)"><rect x="-65" y="-65" width="130" height="130" rx="5" fill="#fff" stroke="#9aa7b8" stroke-width="1.6"/><g transform="translate(-36 -30) scale(1)"><g transform="rotate(0)"><polygon points="0.0,-14.0 14.0,0.0 0.0,14.0 -14.0,0.0" fill="#fff" stroke="#141b26" stroke-width="2.2" stroke-linejoin="round"/></g></g><g transform="translate(0 -32) scale(1)"><rect x="-30.0" y="-6" width="6" height="12" fill="#141b26"/><rect x="-21.0" y="-6" width="6" height="12" fill="#141b26"/><rect x="-12.0" y="-6" width="6" height="12" fill="#141b26"/><rect x="-3.0" y="-6" width="6" height="12" fill="#141b26"/><rect x="6.0" y="-6" width="6" height="12" fill="#141b26"/><rect x="15.0" y="-6" width="6" height="12" fill="#141b26"/><rect x="24.0" y="-6" width="6" height="12" fill="#141b26"/></g><g transform="translate(36 -30) scale(1)"><g transform="rotate(-270) scale(1)"><polyline points="-7,-11 8,0 -7,11" fill="none" stroke="#141b26" stroke-width="3.2" stroke-linejoin="round" stroke-linecap="round"/></g></g><g transform="translate(-36 32) scale(1)"><g transform="rotate(0) scale(1 1)"><path d="M -15 -17 h 11 v 9 h 10 v 10 h -8 v 8 h -13 v -10 h 6 v -7 h -6 z" fill="none" stroke="#141b26" stroke-width="2.4" stroke-linejoin="round"/></g></g><g transform="translate(0 32) scale(1)"><g transform="scale(1.15)"><path d="M 0 0 L 9.1,-6.2 A 11 11 0 1 1 9.1,6.2 Z" fill="#fff" stroke="#141b26" stroke-width="2"/></g></g><g transform="translate(36 32) scale(1)"><g transform="rotate(-360) scale(1)"><line x1="-17" y1="0" x2="12" y2="0" stroke="#141b26" stroke-width="3"/><polygon points="17,0 8,-6 8,6" fill="#141b26"/><circle cx="-4" cy="0" r="7.5" fill="#141b26"/></g></g></g></svg>