<svg xmlns="http://www.w3.org/2000/svg" viewBox="0 0 134 134" width="134"><g transform="translate(67 67)"><rect x="-65" y="-65" width="130" height="130" rx="5" fill="#fff" stroke="#9aa7b8" stroke-width="1.6"/><g transform="translate(-34 -30) scale(1)"><g transform="rotate(0)"><polygon points="0.0,-14.0 12.1,-7.0 12.1,7.0 0.0,14.0 -12.1,7.0 -12.1,-7.0" fill="#fff" stroke="#141b26" stroke-width="2.2" stroke-linejoin="round"/></g></g><g transform="translate(34 -30) scale(1)"><g transform="rotate(540)"><polyline points="-7,-11 8,0 -7,11" fill="none" stroke="#141b26" stroke-width="3.2" stroke-linejoin="round" stroke-linecap="round"/></g></g><g transform="translate(-34 32) scale(1)"><rect x="-3.0" y="-6" width="6" height="12" fill="#141b26"/></g><g transform="translate(34 32) scale(1)"><g transform="rotate(0)"><polygon points="0.0,-8.3 2.0,-2.8 7.8,-2.5 3.3,1.1 4.8,6.7 0.0,3.5 -4.8,6.7 -3.3,1.1 -7.8,-2.5 -2.0,-2.8" fill="#fff" stroke="#141b26" stroke-width="2.2" stroke-linejoin="round"/></g></g></g></svg>