<svg xmlns="http://www.w3.org/2000/svg" viewBox="0 0 726 150" width="726"><g transform="translate(8 8)"><g transform="translate(67 67)"><rect x="-65" y="-65" width="130" height="130" rx="5" fill="#fff" stroke="#9aa7b8" stroke-width="1.6"/><g transform="translate(-36 -30) scale(1)"><path d="M 0 0 L -2.1,10.8 A 11 11 0 1 1 -10.8,2.1 Z" fill="#fff" stroke="#141b26" stroke-width="2"/></g><g transform="translate(0 -32) scale(1)"><rect x="-3.0" y="-6" width="6" height="12" fill="#141b26"/></g><g transform="translate(36 -30) scale(1)"><g transform="scale(1.200)"><polygon points="0,-16 5,-5 17,-4 7,3 10,16 0,8 -10,16 -7,3 -17,-4 -5,-5" fill="#141b26"/></g></g><g transform="translate(-22 34) scale(1)"><circle r="5" fill="none" stroke="#141b26" stroke-width="2"/><circle r="10" fill="none" stroke="#141b26" stroke-width="2"/></g><g transform="translate(26 34) scale(1)"><g transform="rotate(0)"><polygon points="0.0,-14.0 12.1,7.0 -12.1,7.0" fill="#fff" stroke="#141b26" stroke-width="2.2" stroke-linejoin="round"/></g></g></g></g><g transform="translate(152 8)"><g transform="translate(67 67)"><rect x="-65" y="-65" width="130" height="130" rx="5" fill="#f5f3ee" stroke="#9aa7b8" stroke-width="1.6"/><text x="0" y="18.76" font-size="53.6" font-weight="bold" text-anchor="middle" fill="#7d8ba0">?</text></g></g><g transform="translate(296 8)"><g transform="translate(67 67)"><rect x="-65" y="-65" width="130" height="130" rx="5" fill="#fff" stroke="#9aa7b8" stroke-width="1.6"/><g transform="translate(-36 -30) scale(1)"><path d="M 0 0 L -10.8,-2.1 A 11 11 0 1 1 -2.1,-10.8 Z" fill="#fff" stroke="#141b26" stroke-width="2"/></g><g transform="translate(0 -32) scale(1)"><rect x="-12.0" y="-6" width="6" height="12" fill="#141b26"/><rect x="-3.0" y="-6" width="6" height="12" fill="#141b26"/><rect x="6.0" y="-6" width="6" height="12" fill="#141b26"/></g><g transform="translate(36 -30) scale(1)"><g transform="scale(0.875)"><polygon points="0,-16 5,-5 17,-4 7,3 10,16 0,8 -10,16 -7,3 -17,-4 -5,-5" fill="#141b26"/></g></g><g transform="translate(-22 34) scale(1)"><circle r="5" fill="none" stroke="#141b26" stroke-width="2"/><circle r="10" fill="none" stroke="#141b26" stroke-width="2"/></g><g transform="translate(26 34) scale(1)"><g transform="rotate(0)"><polygon points="0.0,-14.0 14.0,0.0 0.0,14.0 -14.0,0.0" fill="#fff" stroke="#141b26" stroke-width="2.2" stroke-linejoin="round"/></g></g></g></g><g transform="translate(440 8)"><g transform="translate(67 67)"><rect x="-65" y="-65" width="130" height="130" rx="5" fill="#fff" stroke="#9aa7b8" stroke-width="1.6"/><g transform="translate(-36 -30) scale(1)"><path d="M 0 0 L -6.2,-9.1 A 11 11 0 1 1 6.2,-9.1 Z" fill="#fff" stroke="#141b26" stroke-width="2"/></g><g transform="translate(0 -32) scale(1)"><rect x="-16.5" y="-6" width="6" height="12" fill="#141b26"/><rect x="-7.5" y="-6" width="6" height="12" fill="#141b26"/><rect x="1.5" y="-6" width="6" height="12" fill="#141b26"/><rect x="10.5" y="-6" width="6" height="12" fill="#141b26"/></g><g transform="translate(36 -30) scale(1)"><g transform="scale(0.713)"><polygon points="0,-16 5,-5 17,-4 7,3 10,16 0,8 -10,16 -7,3 -17,-4 -5,-5" fill="#141b26"/></g></g><g transform="translate(-22 34) scale(1)"><circle r="5" fill="none" stroke="#141b26" stroke-width="2"/><circle r="10" fill="none" stroke="#141b26" stroke-width="2"/></g><g transform="translate(26 34) scale(1)"><g transform="rotate(0)"><polygon points="0.0,-14.0 13.3,-4.3 8.2,11.3 -8.2,11.3 -13.3,-4.3" fill="#fff" stroke="#141b26" stroke-width="2.2" stroke-linejoin="round"/></g></g></g></g><g transform="translate(584 8)"><g transform="translate(67 67)"><rect x="-65" y="-65" width="130" height="130" rx="5" fill="#fff" stroke="#9aa7b8" stroke-width="1.6"/><g transform="translate(-36 -30) scale(1)"><path d="M 0 0 L 2.1,-10.8 A 11 11 0 1 1 10.8,-2.1 Z" fill="#fff" stroke="#141b26" stroke-width="2"/></g><g transform="translate(0 -32) scale(1)"><rect x="-21.0" y="-6" width="6" height="12" fill="#141b26"/><rect x="-12.0" y="-6" width="6" height="12" fill="#141b26"/><rect x="-3.0" y="-6" width="6" height="12" fill="#141b26"/><rect x="6.0" y="-6" width="6" height="12" fill="#141b26"/><rect x="15.0" y="-6" width="6" height="12" fill="#141b26"/></g><g transform="translate(36 -30) scale(1)"><g transform="scale(0.550)"><polygon points="0,-16 5,-5 17,-4 7,3 10,16 0,8 -10,16 -7,3 -17,-4 -5,-5" fill="#141b26"/></g></g><g transform="translate(-22 34) scale(1)"><circle r="5" fill="none" stroke="#141b26" stroke-width="2"/><circle r="10" fill="none" stroke="#141b26" stroke-width="2"/></g><g transform="translate(26 34) scale(1)"><g transform="rotate(0)"><polygon points="0.0,-14.0 12.1,-7.0 12.1,7.0 0.0,14.0 -12.1,7.0 -12.1,-7.0" fill="#fff" stroke="#141b26" stroke-width="2.2" stroke-linejoin="round"/></g></g></g></g></svg>