<svg xmlns="http://www.w3.org/2000/svg" viewBox="0 0 112 112" width="112"><g transform="translate(56 56)"><rect x="-54" y="-54" width="108" height="108" rx="5" fill="#fff" stroke="#9aa7b8" stroke-width="1.6"/><g transform="rotate(0) scale(1 1)"><g transform="translate(-22 -20) scale(1)"><g transform="rotate(0)"><polygon points="0.0,-15.0 4.1,-7.1 13.0,-7.5 8.3,0.0 13.0,7.5 4.1,7.1 0.0,15.0 -4.1,7.1 -13.0,7.5 -8.3,0.0 -13.0,-7.5 -4.1,-7.1" fill="#141b26" stroke="#141b26" stroke-width="2.2" stroke-linejoin="round"/></g></g><g transform="translate(22 -20) scale(1)"><g transform="rotate(18)"><polygon points="0.0,-14.0 13.3,-4.3 8.2,11.3 -8.2,11.3 -13.3,-4.3" fill="#141b26" stroke="#141b26" stroke-width="2.2" stroke-linejoin="round"/></g></g><g transform="translate(-22 22) scale(1)"><g transform="rotate(300) scale(1 1)"><path d="M -15 -17 h 11 v 9 h 10 v 10 h -8 v 8 h -13 v -10 h 6 v -7 h -6 z" fill="#141b26" stroke="#141b26" stroke-width="2.4" stroke-linejoin="round"/></g></g></g></g></svg>