<svg xmlns="http://www.w3.org/2000/svg" viewBox="0 0 112 112" width="112"><g transform="translate(56 56)"><rect x="-54" y="-54" width="108" height="108" rx="5" fill="#fff" stroke="#9aa7b8" stroke-width="1.6"/><g transform="rotate(0) scale(1 1)"><g transform="translate(-22 -20) scale(1)"><g transform="rotate(0)"><polygon points="0.0,-15.0 4.1,-7.1 13.0,-7.5 8.3,0.0 13.0,7.5 4.1,7.1 0.0,15.0 -4.1,7.1 -13.0,7.5 -8.3,0.0 -13.0,-7.5 -4.1,-7.1" fill="#141b26" stroke="#141b26" stroke-width="2.2" stroke-linejoin="round"/></g></g><g transform="translate(22 -20) scale(1)"><g transform="rotate(18) scale(1)"><line x1="-17" y1="0" x2="12" y2="0" stroke="#141b26" stroke-width="3"/><polygon points="17,0 8,-6 8,6" fill="#141b26"/><circle cx="-4" cy="0" r="7.5" fill="#141b26"/></g></g><g transform="translate(-22 22) scale(1)"><g transform="rotate(300) scale(1)"><line x1="-17" y1="0" x2="12" y2="0" stroke="#141b26" stroke-width="3"/><polygon points="17,0 8,-6 8,6" fill="#141b26"/><circle cx="-4" cy="0" r="7.5" fill="#141b26"/></g></g></g></g></svg>