<svg xmlns="http://www.w3.org/2000/svg" viewBox="0 0 112 112" width="112"><g transform="translate(56 56)"><rect x="-54" y="-54" width="108" height="108" rx="5" fill="#fff" stroke="#9aa7b8" stroke-width="1.6"/><g transform="rotate(0) scale(1 1)"><g transform="translate(-22 -20) scale(1)"><g transform="rotate(0)"><polygon points="0.0,-15.0 3.7,-5.1 14.3,-4.6 6.0,1.9 8.8,12.1 0.0,6.3 -8.8,12.1 -6.0,1.9 -14.3,-4.6 -3.7,-5.1" fill="#141b26" stroke="#141b26" stroke-width="2.2" stroke-linejoin="round"/></g></g><g transform="translate(22 -20) scale(1)"><g transform="scale(1)"><path d="M 0 0 L 8.9,6.5 A 11 11 0 1 1 -2.7,10.7 Z" fill="#141b26" stroke="#141b26" stroke-width="2"/></g></g><g transform="translate(-22 22) scale(1)"><rect x="-12.0" y="-6" width="6" height="12" fill="#141b26"/><rect x="-3.0" y="-6" width="6" height="12" fill="#141b26"/><rect x="6.0" y="-6" width="6" height="12" fill="#141b26"/></g></g></g></svg>